<?xml version="1.0" encoding="UTF-8"?>
<svg id="Layer_1" data-name="Layer 1" xmlns="http://www.w3.org/2000/svg" viewBox="0 0 505.56 404.45">
  <defs>
    <style>
      .cls-1 {
        fill: #fff;
      }

      .cls-2 {
        fill: #2f75d7;
      }
    </style>
  </defs>
  <path class="cls-1" d="M50.96,404.05c-13.88,0-25.75-4.94-35.64-14.82-9.88-9.88-14.82-21.76-14.82-35.64V50.86C.5,36.98,5.44,25.1,15.32,15.22S37.08.4,50.96.4h403.65c13.88,0,25.75,4.94,35.64,14.82,9.88,9.88,14.82,21.76,14.82,35.64v302.74c0,13.88-4.94,25.75-14.82,35.64s-21.76,14.82-35.64,14.82H50.96Z"/>
  <path class="cls-2" d="M50.56,404.45c-13.9,0-25.8-4.95-35.71-14.85S0,367.8,0,353.9V50.56c0-13.9,4.95-25.8,14.85-35.71C24.75,4.95,36.65,0,50.56,0h404.45c13.9,0,25.8,4.95,35.71,14.85,9.9,9.9,14.85,21.8,14.85,35.71v303.34c0,13.9-4.95,25.8-14.85,35.71-9.9,9.9-21.8,14.85-35.71,14.85H50.56ZM252.78,227.5l202.23-126.39v-50.56l-202.23,126.39L50.56,50.56v50.56l202.23,126.39Z"/>
</svg>