<?xml version="1.0" encoding="UTF-8"?>
<svg id="Layer_1" data-name="Layer 1" xmlns="http://www.w3.org/2000/svg" viewBox="0 0 505.56 533.06">
  <defs>
    <style>
      .cls-1 {
        fill: #fff;
      }

      .cls-2 {
        fill: #2f75d7;
      }
    </style>
  </defs>
  <rect class="cls-2" width="505.56" height="533.06" rx="58.17" ry="58.17"/>
  <g>
    <circle class="cls-1" cx="113.65" cy="118.69" r="45.4"/>
    <rect class="cls-1" x="75.88" y="198.32" width="74.48" height="253.22"/>
    <path class="cls-1" d="M197.83,198.32h71.69v35.37s3.28-16.98,34.25-32.4c21.37-10.64,35.99-8.87,48.61-7.64,47.48,4.66,68.89,27,78.2,80.99v176.88h-73.55l-.93-139.49c-.16-14.11-3.88-34.73-16.14-43.44-5.89-4.19-15.67-6.05-25.76-6.05-6.35,0-13.73,1.57-23.37,7.28-2.27,1.35-6.66,6.67-9,10.62-5.03,8.48-7.66,20.07-7.78,27.39l-1.73,143.7h-74.48v-253.22h0Z"/>
  </g>
</svg>